<svg width="35" height="35" viewBox="0 0 35 35" fill="none" xmlns="http://www.w3.org/2000/svg">
<path d="M16.8916 0.105927C16.7617 0.161945 13.0704 2.36066 8.69556 4.98652C3.62343 8.03252 0.643045 9.86012 0.472151 10.0352C-0.0336943 10.5463 0.000484393 9.67806 0.000484393 22.6043C0.000484393 33.759 0.00732014 34.2141 0.130364 34.4452C0.198721 34.5782 0.355943 34.7603 0.485823 34.8513C0.711402 35.0054 0.752417 35.0124 1.98285 34.9914C3.37734 34.9703 3.45937 34.9423 3.73964 34.4802C3.85585 34.2771 3.86268 33.815 3.89686 24.3409C3.9242 15.616 3.94471 14.4046 4.03358 14.3486C4.17029 14.2576 30.8297 14.2576 30.9664 14.3486C31.0553 14.4046 31.0758 15.616 31.1031 24.3409C31.1373 33.815 31.1442 34.2771 31.2604 34.4802C31.5406 34.9423 31.6227 34.9703 33.0171 34.9914C34.2476 35.0124 34.2886 35.0054 34.5142 34.8513C34.6441 34.7603 34.8013 34.5782 34.8696 34.4452C34.9927 34.2141 34.9995 33.759 34.9995 22.6043C34.9995 9.67806 35.0337 10.5463 34.5279 10.0352C34.357 9.86012 31.3766 8.03252 26.3044 4.98652C21.9227 2.35366 18.2314 0.161945 18.0947 0.0989227C17.7803 -0.0341187 17.1924 -0.0341187 16.8916 0.105927Z" fill="#E5E5E5"/>
</svg>
