<svg width="35" height="35" viewBox="0 0 35 35" fill="none" xmlns="http://www.w3.org/2000/svg">
<path d="M11.9014 0.102577C9.24218 0.464882 6.91112 1.49027 4.91503 3.18559C2.65233 5.10648 1.05272 7.90238 0.512686 10.9034C0.355459 11.7715 0.300772 13.6993 0.410147 14.6153C1.12792 20.8018 5.92675 25.5664 12.1133 26.2432C14.5264 26.5098 17.0967 26.045 19.332 24.9307L20.1728 24.5137L21.7588 26.086C22.6338 26.9473 24.8965 29.1963 26.7969 31.083C30.5703 34.8291 30.5156 34.7881 31.4795 34.9522C32.6142 35.1436 33.8721 34.46 34.3642 33.3868C34.6992 32.6553 34.6787 31.7666 34.3164 31.0215C34.125 30.6387 33.5918 30.085 29.1826 25.7032C26.4756 23.0166 24.2607 20.795 24.2676 20.7676C24.2676 20.7471 24.418 20.4805 24.6025 20.1866C26.0723 17.8145 26.7627 15.128 26.5918 12.4346C26.5303 11.4297 26.5098 11.2862 26.3115 10.3496C26.0176 8.9141 25.3135 7.22562 24.4795 5.96781C22.709 3.28129 20.0908 1.36039 17.0283 0.499062C15.5039 0.0683975 13.3574 -0.095665 11.9014 0.102577ZM15.3808 4.91508C17.0967 5.34574 18.5049 6.16605 19.6807 7.42386C22.4355 10.377 22.6953 14.9571 20.2891 18.1973C17.7871 21.5743 13.2617 22.627 9.55663 20.6993C7.65624 19.7149 6.13866 17.9444 5.44823 15.9278C5.16796 15.1075 5.05175 14.4512 5.01073 13.501C4.87401 10.2403 6.58983 7.25297 9.50878 5.6807C10.2744 5.26371 11.1836 4.9766 12.373 4.75785C12.4687 4.74418 13.0498 4.73734 13.6719 4.75101C14.5332 4.76469 14.9365 4.8057 15.3808 4.91508Z" fill="#E5E5E5"/>
</svg>
