<svg width="35" height="35" viewBox="0 0 35 35" fill="none" xmlns="http://www.w3.org/2000/svg">
<path d="M15.9277 0.0683556C14.5674 0.191402 12.7559 0.601559 11.4912 1.0664C9.8711 1.66796 7.875 2.80273 6.52149 3.89648C5.83106 4.45703 4.45703 5.83105 3.89649 6.52148C2.80274 7.875 1.66797 9.87109 1.06641 11.4912C0.218752 13.7881 -0.150388 16.5635 0.0683616 18.9902C0.198244 20.4668 0.587893 22.2031 1.06641 23.5088C1.66797 25.1289 2.80274 27.125 3.89649 28.4785C4.45703 29.1689 5.83106 30.543 6.52149 31.1035C7.875 32.1973 9.8711 33.332 11.4912 33.9336C13.7881 34.7812 16.5635 35.1504 18.9902 34.9316C20.4668 34.8018 22.2031 34.4121 23.5088 33.9336C25.1289 33.332 27.125 32.1973 28.4785 31.1035C29.169 30.543 30.543 29.1689 31.1035 28.4785C32.1973 27.125 33.332 25.1289 33.9336 23.5088C34.4121 22.2031 34.8018 20.4668 34.9316 18.9902C35.1504 16.5635 34.7813 13.7881 33.9336 11.4912C33.332 9.87109 32.1973 7.875 31.1035 6.52148C30.543 5.83105 29.169 4.45703 28.4785 3.89648C27.125 2.80273 25.1289 1.66796 23.5088 1.0664C21.2051 0.218746 18.4023 -0.150394 15.9277 0.0683556ZM19.0381 5.46874C19.9199 5.74218 20.5557 6.12499 21.1914 6.76757C21.8545 7.43066 22.21 7.99804 22.4629 8.78418C23.2764 11.3408 22.2441 13.9727 19.9609 15.1484C19.1611 15.5654 18.6074 15.6885 17.5 15.6885C16.3926 15.6885 15.8389 15.5654 15.0391 15.1484C13.4941 14.3555 12.5166 12.9131 12.2979 11.1221C12.1611 10.0146 12.4141 8.74316 12.9678 7.79296C13.3574 7.12304 14.2666 6.24121 14.9365 5.89941C15.9619 5.37988 16.4951 5.26367 17.7051 5.29785C18.3408 5.31152 18.6826 5.35937 19.0381 5.46874ZM18.9697 19.1748C23.7754 19.7353 27.6514 21.8613 27.9522 24.0967L28.0068 24.4932L27.5898 25.0469C26.6807 26.2637 25.1152 27.6377 23.7412 28.4238C19.8789 30.6387 15.1211 30.6387 11.2588 28.4238C9.88477 27.6377 8.31934 26.2637 7.41016 25.0469L6.99317 24.4932L7.04785 24.0967C7.27344 22.4082 9.52246 20.7607 12.8857 19.8037C15.1553 19.1543 17.1035 18.9561 18.9697 19.1748Z" fill="#E5E5E5"/>
</svg>
